# xmcd
#
# Track frame offsets: 
#        150
#        13124
#        30871
#        46049
#        68089
#        87353
#        98673
#        113167
#        128768
#        151366
#        166210
#
# Disc length: 2397 seconds
#
# Revision: 0
# Processed by: cddbd v1.5.1PL2 Copyright (c) Steve Scherf et al.
# Submitted via: ExactAudioCopy v0.90b4
#
DISCID=77095b0b
DTITLE=Josh Roberts and The Hinges - The Sugar Bird Test
DYEAR=2005
DGENRE=Alt. Counrty
TTITLE0=Why I Never Killed
TTITLE1=Slowly, 16 Months
TTITLE2=Living Thing
TTITLE3=Prehistoric Marrow
TTITLE4=Lone, Distant
TTITLE5=It's Never Enough
TTITLE6=How'd You Get Into Giving Like This?
TTITLE7=Dandelion
TTITLE8=Janey
TTITLE9=Hole In The Past
TTITLE10=I'll Come To You In A Dream
EXTD=
EXTT0=
EXTT1=
EXTT2=
EXTT3=
EXTT4=
EXTT5=
EXTT6=
EXTT7=
EXTT8=
EXTT9=
EXTT10=
PLAYORDER=
